# AST/ASF file generated using VICON BodyLanguage
# -----------------------------------------------
:version 1.10
:name VICON
:units
  mass 1.0
  length 0.45
  angle deg
:documentation
   .ast/.asf automatically generated from VICON data using
   VICON BodyBuilder and BodyLanguage model FoxedUp or BRILLIANT.MOD
:root
   order TX TY TZ RX RY RZ
   axis XYZ
   position 0 0 0  
   orientation 0 0 0 
:bonedata
  begin
     id 1 
     name lhipjoint
     direction 0.64773 -0.699417 0.302095 
     length 2.48597 
     axis 0 0 0  XYZ
  end
  begin
     id 2 
     name lfemur
     direction 0.34202 -0.939693 0  
     length 6.71947  
     axis 0 0 20  XYZ
    dof rx ry rz
    limits (-160.0 20.0)
           (-70.0 70.0)
           (-60.0 70.0)
  end
  begin
     id 3 
     name ltibia
     direction 0.34202 -0.939693 0   
     length 8.08777   
     axis 0 0 20   XYZ
    dof rx
    limits (-10.0 170.0)
  end
  begin
     id 4 
     name lfoot
     direction 0.0808503 -0.222134 0.971658   
     length 2.08264   
     axis -90 7.62852e-016 20   XYZ
    dof rx rz
    limits (-45.0 90.0)
           (-70.0 20.0)
  end
  begin
     id 5 
     name ltoes
     direction 1.53502e-011 -4.22007e-011 1   
     length 1.04662   
     axis -90 7.62852e-016 20   XYZ
    dof rx
    limits (-90.0 20.0)
  end
  begin
     id 6 
     name rhipjoint
     direction -0.610924 -0.726792 0.313919   
     length 2.39233  
     axis 0 0 0  XYZ 
  end
  begin
     id 7 
     name rfemur
     direction -0.34202 -0.939693 0   
     length 6.96955   
     axis 0 0 -20   XYZ
    dof rx ry rz
    limits (-160.0 20.0)
           (-70.0 70.0)
           (-70.0 60.0)
  end
  begin
     id 8 
     name rtibia
     direction -0.34202 -0.939693 0   
     length 8.19584   
     axis 0 0 -20   XYZ
    dof rx
    limits (-10.0 170.0)
 end
 begin
     id 9 
     name rfoot
     direction -0.077777 -0.213691 0.9738   
     length 2.07539  
     axis -90 -7.62852e-016 -20   XYZ
    dof rx rz
    limits (-45.0 90.0)
           (-20.0 70.0)
  end
  begin
     id 10 
     name rtoes
     direction -1.53558e-011 -4.22006e-011 1   
     length 1.04381   
     axis -90 -7.62852e-016 -20   XYZ
    dof rx
    limits (-90.0 20.0)
  end
  begin
     id 11 
     name lowerback
     direction -0.00971646 0.996074 0.0879841   
     length 1.67643   
     axis 0 0 0   XYZ
    dof rx ry rz
    limits (-20.0 45.0)
           (-30.0 30.0)
           (-30.0 30.0)
  end
  begin
     id 12 
     name upperback
     direction 0.0127391 0.991676 0.128127   
     length 1.63741   
     axis 0 0 0   XYZ
    dof rx ry rz
    limits (-20.0 45.0)
           (-30.0 30.0)
           (-30.0 30.0)
  end
  begin
     id 13 
     name thorax
     direction 0.0167583 0.996049 0.0872067   
     length 1.65931   
     axis 0 0 0   XYZ
    dof rx ry rz
    limits (-20.0 45.0)
           (-30.0 30.0)
           (-30.0 30.0)
  end
  begin
     id 14 
     name lowerneck
     direction -0.0317829 0.998312 0.0486079   
     length 1.79021   
     axis 0 0 0   XYZ
    dof rx ry rz
    limits (-20.0 45.0)
           (-30.0 30.0)
           (-30.0 30.0)
  end
  begin
     id 15 
     name upperneck
     direction 0.0896851 0.972452 -0.215159   
     length 1.78797   
     axis 0 0 0   XYZ
    dof rx ry rz
    limits (-20.0 45.0)
           (-30.0 30.0)
           (-30.0 30.0)
  end
  begin
     id 16
     name head
     direction 0.0310949 0.996503 -0.0775582  
     length 1.81549  
     axis 0 0 0   XYZ
    dof rx ry rz
    limits (-20.0 45.0)
           (-30.0 30.0)
           (-30.0 30.0)
  end
  begin
     id 17 
     name lclavicle
     direction 0.853638 0.502051 -0.138733  
     length 3.31627  
     axis 0 0 0   XYZ
    dof ry rz
    limits (-20.0 10.0)
           (0.0 20.0)
  end
  begin
     id 18 
     name lhumerus
     direction 1 -4.48962e-011 -1.41788e-018   
     length 5.54893   
     axis 180 -30 -90   XYZ
    dof rx ry rz
    limits (-60.0 90.0)
           (-90.0 90.0)
           (-90.0 90.0)
  end
  begin
     id 19
     name lradius
     direction 1 -4.48962e-011 -4.95754e-027   
     length 3.02898   
     axis 180 -30 -90   XYZ
    dof rx
    limits (-10.0 170.0)
  end
  begin
     id 20
     name lwrist
     direction 1 -4.48952e-011 -1.03764e-026   
     length 1.51449   
     axis 9.09556e-015 90 90   XYZ
    dof ry
    limits (-180.0 0.0)
 end
  begin
     id 21 
     name lhand
     direction 1 -4.4902e-011 -2.07528e-026   
     length 0.640951   
     axis 1.3242e-014 90 90   XYZ
    dof rx rz
    limits (-90.0 90.0)
           (-45.0 45.0)
  end
  begin
     id 22 
     name lfingers
     direction 1 -4.49014e-011 -4.15056e-026   
     length 0.516751   
     axis 2.64841e-014 90 90   XYZ
    dof rx
    limits (0.0 90.0)
  end
  begin
     id 23
     name lthumb
     direction 0.707107 -6.35008e-011 0.707107   
     length 0.741954   
     axis -90 45 2.85299e-015   XYZ
    dof rx rz
    limits (-45.0 45.0)
           (-45.0 45.0)
  end
  begin
     id 24 
     name rclavicle
     direction -0.888531 0.455324 -0.0565039   
     length 3.20126  
     axis 0 0 0   XYZ 
    dof ry rz
    limits (-10.0 20.0)
           (-20.0 0.0)
  end
  begin
     id 25 
     name rhumerus
     direction -1 -4.48946e-011 -8.98298e-028  
     length 5.3519   
     axis 180 30 90   XYZ
    dof rx ry rz
    limits (-90.0 60.0)
           (-90.0 90.0)
           (-90.0 90.0)
  end
  begin
     id 26 
     name rradius
     direction -1 -4.4899e-011 -3.18779e-027   
     length 3.02531   
     axis 180 30 90   XYZ
    dof rx
    limits (-10.0 170.0)
  end
  begin
     id 27 
     name rwrist
     direction -1 -4.4897e-011 -1.03764e-026   
     length 1.51266   
     axis 9.09556e-015 -90 -90   XYZ
    dof ry
    limits (-180.0 0.0)
  end
  begin
     id 28
     name rhand
     direction -1 -4.48941e-011 -2.07528e-026   
     length 0.78389   
     axis 1.3242e-014 -90 -90   XYZ
    dof rx rz
    limits (-90.0 90.0)
           (-45.0 45.0)
  end
  begin
     id 29
     name rfingers
     direction -1 -4.49012e-011 -4.15056e-026   
     length 0.631992   
     axis 2.64841e-014 -90 -90   XYZ
    dof rx
    limits (0.0 90.0)
  end
  begin
     id 30
     name rthumb
     direction -0.707107 -6.3496e-011 0.707107   
     length 0.907418   
     axis -90 -45 -2.85299e-015   XYZ
    dof rx rz
    limits (-45.0 45.0)
           (-45.0 45.0)
  end
:hierarchy
  begin
    root lhipjoint rhipjoint lowerback
    lhipjoint lfemur
    lfemur ltibia
    ltibia lfoot
    lfoot ltoes
    rhipjoint rfemur
    rfemur rtibia
    rtibia rfoot
    rfoot rtoes
    lowerback upperback
    upperback thorax
    thorax lowerneck lclavicle rclavicle
    lowerneck upperneck
    upperneck head
    lclavicle lhumerus
    lhumerus lradius
    lradius lwrist
    lwrist lhand lthumb
    lhand lfingers
    rclavicle rhumerus
    rhumerus rradius
    rradius rwrist
    rwrist rhand rthumb
    rhand rfingers
  end

#!OML:ASF E:\Style3\Style3.ASF
:FULLY-SPECIFIED
:DEGREES
2896
root 0.477783 17.802 1.22638 -162.835 63.243 181.252
lowerback -4.75503 1.04321 -5.06638
upperback -5.97577 1.82068 -5.77646
thorax -3.48933 1.17372 -3.13944
lowerneck -4.67897 10.6641 6.12526
upperneck 33.0082 23.0412 -11.4586
head 14.3264 10.6789 -1.9846
rclavicle 3.49861e-014 1.27222e-014
rhumerus 28.7689 -16.4089 -32.9471
rradius 136.769
rwrist -31.9761
rhand -50.246 36.5234
rfingers 7.12502
rthumb -22.8252 7.85402
lclavicle 3.49861e-014 1.27222e-014
lhumerus -20.2885 -36.7103 78.8651
lradius 120.187
lwrist 23.8247
lhand 16.8241 25.9069
lfingers 7.12502
lthumb 41.5658 50.6407
rfemur -9.57302 7.4488 21.0521
rtibia 10.1191
rfoot -17.9921 -30.2808
rtoes -9.09126
lfemur -17.8804 -18.4463 -7.57827
ltibia 5.84308
lfoot -5.5244 3.48972
ltoes -26.6381
2897
root 0.477279 17.8012 1.22808 -162.862 63.4575 181.274
lowerback -4.79846 1.12808 -5.07499
upperback -6.02125 1.94021 -5.85995
thorax -3.50864 1.2355 -3.22076
lowerneck -4.65 10.6387 6.28732
upperneck 32.9051 22.925 -11.4729
head 14.2793 10.648 -2.0387
rclavicle 6.57977e-014 -6.04305e-014
rhumerus 27.7666 -13.6095 -31.5259
rradius 135.725
rwrist -28.9703
rhand -50.7647 40.5882
rfingers 7.12502
rthumb -23.3229 11.981
lclavicle 6.57977e-014 -6.04305e-014
lhumerus -20.1712 -37.0212 78.7696
lradius 120.125
lwrist 23.7963
lhand 16.9266 25.7638
lfingers 7.12502
lthumb 41.6619 50.4661
rfemur -9.58897 7.61125 21.0173
rtibia 10.1922
rfoot -17.8838 -30.2876
rtoes -9.37201
lfemur -17.802 -18.2463 -7.65458
ltibia 5.89399
lfoot -5.55748 3.47754
ltoes -26.2268
2898
root 0.475745 17.8 1.22794 -162.788 63.644 181.371
lowerback -4.87277 1.30021 -4.97878
upperback -6.11758 2.17761 -6.00682
thorax -3.55508 1.35376 -3.42601
lowerneck -4.45267 10.5016 6.58681
upperneck 32.7838 22.6308 -11.5084
head 14.1846 10.5708 -2.16727
rclavicle 1.12313e-014 3.65764e-014
rhumerus 26.5104 -10.9556 -29.9745
rradius 134.919
rwrist -26.235
rhand -50.151 39.8292
rfingers 7.12502
rthumb -22.734 11.1485
lclavicle 1.12313e-014 3.65764e-014
lhumerus -20.1073 -37.7041 78.7247
lradius 120.114
lwrist 23.8366
lhand 16.7933 25.7766
lfingers 7.12502
lthumb 41.5369 50.5199
rfemur -9.62336 7.56022 21.0293
rtibia 10.2352
rfoot -17.6863 -30.1385
rtoes -9.82118
lfemur -17.7971 -18.0605 -7.69421
ltibia 6.02918
lfoot -5.64025 3.46573
ltoes -26.2685
2899
root 0.473126 17.7992 1.2273 -162.699 63.785 181.494
lowerback -4.93708 1.47642 -4.82461
upperback -6.22092 2.4186 -6.17467
thorax -3.60917 1.47153 -3.68635
lowerneck -4.32961 10.2983 6.89634
upperneck 32.7691 22.2779 -11.5568
head 14.1499 10.462 -2.30498
rclavicle -3.40916e-014 -4.29375e-014
rhumerus 25.1851 -8.15225 -28.2925
rradius 134.258
rwrist -24.332
rhand -49.3185 36.2382
rfingers 7.12502
rthumb -21.9348 7.46177
lclavicle -3.40916e-014 -4.29375e-014
lhumerus -19.975 -38.4055 78.6472
lradius 120.022
lwrist 23.7667
lhand 16.843 25.6359
lfingers 7.12502
lthumb 41.5836 50.364
rfemur -9.6266 7.55332 21.0561
rtibia 10.2494
rfoot -17.6086 -30.0187
rtoes -9.8096
lfemur -17.82 -17.9194 -7.72128
ltibia 6.21838
lfoot -5.72813 3.49459
ltoes -26.8049
2900
root 0.469622 17.8004 1.22644 -162.752 63.8978 181.497
lowerback -4.93374 1.59241 -4.72054
upperback -6.25305 2.57217 -6.27331
thorax -3.63178 1.54466 -3.84712
lowerneck -4.31031 10.1919 6.91502
upperneck 32.5755 22.0202 -11.5846
head 14.0265 10.3544 -2.36905
rclavicle -2.16675e-014 4.92986e-014
rhumerus 24.1563 -4.93471 -26.4151
rradius 133.73
rwrist -23.5881
rhand -48.0052 31.8676
rfingers 7.12502
rthumb -20.6734 2.94866
lclavicle -2.16675e-014 4.92986e-014
lhumerus -19.6948 -38.8188 78.5414
lradius 119.912
lwrist 23.7812
lhand 16.9061 25.6122
lfingers 7.12502
lthumb 41.6427 50.3208
rfemur -9.60544 7.54775 21.0336
rtibia 10.2842
rfoot -17.5513 -29.9315
rtoes -9.68131
lfemur -17.8098 -17.8267 -7.79629
ltibia 6.36881
lfoot -5.7724 3.48617
ltoes -26.7688
2901
root 0.46546 17.801 1.22578 -162.781 63.9682 181.532
lowerback -4.90684 1.68752 -4.59148
upperback -6.24032 2.69371 -6.33633
thorax -3.6207 1.59881 -3.98369
lowerneck -4.30506 10.2626 6.87112
upperneck 32.2999 21.9569 -11.4716
head 13.8651 10.3329 -2.33541
rclavicle 7.25564e-015 5.725e-014
rhumerus 23.4093 -1.4507 -24.485
rradius 133.168
rwrist -23.9412
rhand -45.5927 27.129
rfingers 7.12502
rthumb -18.3539 -2.02514
lclavicle 7.25564e-015 5.725e-014
lhumerus -19.3176 -39.1803 78.3722
lradius 119.846
lwrist 23.8227
lhand 16.9086 25.7087
lfingers 7.12502
lthumb 41.6451 50.4166
rfemur -9.56945 7.48868 21.0416
rtibia 10.3155
rfoot -17.5467 -29.7965
rtoes -9.76004
lfemur -17.808 -17.7662 -7.83163
ltibia 6.50231
lfoot -5.83542 3.44455
ltoes -26.1982
2902
root 0.460516 17.7995 1.22631 -162.833 63.9907 181.546
lowerback -4.84908 1.73578 -4.465
upperback -6.26723 2.74961 -6.38368
thorax -3.67128 1.62179 -4.10724
lowerneck -4.33509 10.3304 6.83816
upperneck 32.225 21.9567 -11.3102
head 13.8062 10.3415 -2.26863
rclavicle 1.37161e-014 -4.6118e-014
rhumerus 22.9185 2.27746 -22.444
rradius 132.635
rwrist -25.5348
rhand -42.7496 22.189
rfingers 7.12502
rthumb -15.6172 -7.20057
lclavicle 1.37161e-014 -4.6118e-014
lhumerus -19.0985 -39.4888 78.2674
lradius 119.817
lwrist 23.8089
lhand 16.7907 25.7724
lfingers 7.12502
lthumb 41.5345 50.5165
rfemur -9.52888 7.46521 21.0469
rtibia 10.3353
rfoot -17.4602 -29.7772
rtoes -10.221
lfemur -17.8286 -17.7544 -7.86157
ltibia 6.65515
lfoot -5.8441 3.44604
ltoes -26.3196
